<?xml version="1.0" standalone="no"?>
<!DOCTYPE svg PUBLIC "-//W3C//DTD SVG 20010904//EN"
 "http://www.w3.org/TR/2001/REC-SVG-20010904/DTD/svg10.dtd">
<svg version="1.0" xmlns="http://www.w3.org/2000/svg"
 width="400.000000pt" height="400.000000pt" viewBox="0 0 400.000000 400.000000"
 preserveAspectRatio="xMidYMid meet">

<g transform="translate(0.000000,400.000000) scale(0.100000,-0.100000)"
fill="#000000" stroke="none">
<path d="M2680 2618 c-92 -62 -168 -294 -176 -538 l-4 -125 -35 -32 c-19 -18
-44 -33 -56 -33 -20 0 -21 4 -16 68 3 37 10 96 16 131 13 72 6 91 -39 91 -15
0 -33 7 -40 15 -7 8 -28 15 -47 15 -81 0 -182 -92 -208 -189 -27 -99 -30 -105
-56 -120 -60 -34 -74 16 -43 163 8 41 14 90 12 108 -3 30 -6 33 -39 36 -21 2
-40 -2 -47 -11 -15 -18 -41 -119 -49 -191 -6 -53 -9 -60 -45 -86 -72 -53 -146
-51 -174 2 -35 68 2 193 57 193 22 0 24 -4 21 -42 -3 -33 1 -44 16 -52 16 -8
25 -6 45 9 32 25 42 69 27 115 -15 44 -44 65 -93 65 -73 0 -139 -45 -179 -123
-16 -32 -24 -38 -45 -35 -21 2 -29 10 -36 38 -20 78 -74 120 -154 120 -145 0
-242 -188 -170 -330 30 -61 76 -90 141 -90 75 0 122 31 161 105 25 47 37 60
56 60 18 0 25 -7 29 -31 26 -123 163 -172 295 -105 l58 29 24 -29 c21 -24 32
-29 70 -29 42 0 103 25 103 42 0 4 7 8 15 8 8 0 15 -4 15 -10 0 -17 58 -40
101 -40 33 0 47 6 73 33 l33 32 30 -32 c46 -51 113 -42 172 21 30 32 35 32 49
1 28 -60 148 -74 214 -23 l33 25 26 -28 c22 -24 35 -29 70 -29 26 0 57 8 77
20 17 11 32 16 32 12 2 -47 21 -195 30 -223 17 -59 46 -89 86 -89 68 0 100 39
114 139 7 53 -2 211 -16 265 -6 24 -5 25 48 22 36 -3 52 -8 50 -16 -1 -7 2
-29 9 -49 33 -104 127 -110 179 -13 l20 37 -7 -45 c-5 -36 -13 -51 -42 -74
-69 -56 -159 -155 -180 -198 -12 -26 -21 -64 -21 -92 0 -40 5 -53 30 -78 28
-27 36 -30 75 -25 98 11 146 81 204 300 l26 98 95 67 c83 59 95 72 98 100 5
53 -20 51 -104 -7 l-74 -51 6 42 c4 24 15 90 24 148 10 57 16 110 13 117 -7
17 -67 17 -81 0 -6 -7 -23 -49 -37 -92 -34 -108 -74 -180 -100 -180 -18 0 -20
6 -17 56 2 31 11 90 21 131 9 41 16 79 13 86 -6 20 -69 14 -90 -8 -10 -11 -25
-46 -32 -78 -7 -31 -17 -61 -21 -66 -4 -5 -40 -9 -79 -8 -70 0 -72 -1 -91 -31
-13 -21 -17 -41 -13 -57 15 -64 34 -200 34 -252 0 -65 -15 -117 -30 -102 -16
16 -33 229 -27 336 l5 98 57 62 c132 146 195 275 195 400 0 140 -73 190 -161
111 -50 -45 -81 -98 -119 -202 -45 -122 -79 -293 -80 -392 0 -49 -4 -59 -33
-87 -38 -37 -62 -40 -77 -12 -9 16 -6 48 10 134 28 146 26 160 -22 164 -29 3
-40 -2 -52 -20 -17 -27 -46 -153 -46 -203 0 -44 -56 -95 -103 -95 -37 0 -50 7
-65 36 -9 18 -4 31 34 88 150 224 216 472 156 583 -26 47 -80 56 -132 21z m64
-90 c19 -71 -13 -207 -80 -347 -54 -111 -63 -105 -44 34 30 225 100 402 124
313z m540 6 c18 -48 -6 -151 -60 -254 -36 -67 -71 -116 -79 -108 -2 2 6 51 19
109 46 199 98 310 120 253z m-977 -426 c-3 -13 -13 -59 -22 -103 -17 -83 -43
-125 -77 -125 -47 0 -48 106 -1 177 40 63 111 99 100 51z m-1007 -27 c0 -24 9
-51 25 -75 28 -42 29 -46 14 -79 -16 -34 -52 -50 -84 -35 -61 28 -57 167 6
212 34 23 39 20 39 -23z m2161 -479 c-26 -85 -56 -134 -79 -130 -23 4 -28 58
-9 95 22 42 101 127 105 114 2 -6 -5 -42 -17 -79z"/>
<path d="M749 2550 c-124 -22 -208 -110 -209 -218 0 -97 56 -155 214 -218 116
-45 156 -78 156 -124 0 -17 -5 -40 -10 -51 -36 -67 -234 -76 -288 -14 -19 23
-22 34 -17 69 8 51 -11 76 -55 76 -40 0 -60 -32 -60 -98 0 -126 81 -184 260
-184 119 0 191 24 244 82 42 47 50 72 44 148 -6 86 -31 113 -163 178 -60 30
-115 54 -121 54 -7 0 -26 13 -43 29 -26 24 -31 37 -31 74 0 38 5 49 30 70 53
45 182 45 231 1 14 -13 19 -31 19 -75 0 -51 3 -61 25 -75 23 -15 27 -15 50 0
63 41 59 163 -6 223 -51 47 -172 71 -270 53z"/>
<path d="M1915 2385 c-48 -47 -17 -115 51 -115 67 0 111 82 66 123 -28 26 -88
22 -117 -8z"/>
<path d="M2856 2389 c-34 -27 -36 -81 -4 -103 76 -54 182 40 118 104 -26 26
-80 26 -114 -1z"/>
</g>
</svg>
